<?xml version="1.0" encoding="utf-8"?>
<!DOCTYPE svg PUBLIC "-//W3C//DTD SVG 1.1//EN" "http://www.w3.org/Graphics/SVG/1.1/DTD/svg11.dtd">
<svg className="callout--icon" xmlns="http://www.w3.org/2000/svg" fill="none" viewBox="0 0 100 100">
  <path className="icon--fill" fill="#ebd551" d="M97.186 73.579L60.63 11.364C58.23 7.414 54.083 5 49.5 5c-4.583 0-8.73 2.414-11.13 6.364L1.814 73.58c-2.4 3.95-2.4 8.887-.109 12.838C4.105 90.585 8.252 93 12.835 93h73.33c4.582 0 8.838-2.414 11.13-6.584 2.291-3.95 2.291-8.887-.11-12.837z"/>
  <path fill="#fff" d="M49 28c-1.645 0-3 1.566-3 3.466v28.067C46 61.434 47.355 63 49 63s3-1.566 3-3.467V31.466c0-1.9-1.355-3.466-3-3.466z"/>
  <ellipse cx="49" cy="73" fill="#fff" rx="4" ry="3"/>
</svg>
