<svg xmlns="http://www.w3.org/2000/svg" fill="none" className="callout--icon" viewBox="0 0 100 100"><circle cx="50" cy="50" r="50" fill="#1662dd" className="icon--fill"/><path fill="#fff" d="M49.278 65.192c-.67 0-1.313-.243-1.788-.676a2.21 2.21 0 0 1-.74-1.632V52.207c0-.257.055-.51.163-.747.107-.237.265-.452.463-.633.199-.181.435-.325.694-.423.26-.098.538-.149.818-.149 2.853.034 5.614-.915 7.733-2.66 2.118-1.743 3.437-4.153 3.693-6.746.193-2.57-.698-5.112-2.491-7.102-1.794-1.99-4.353-3.28-7.154-3.604-2.8-.324-5.631.341-7.912 1.86-2.28 1.52-3.839 3.777-4.355 6.31-.111.522-.42.992-.87 1.33-.45.336-1.016.52-1.6.516-.37 0-.737-.074-1.073-.217a2.52 2.52 0 0 1-.872-.612 2.247 2.247 0 0 1-.506-.891 2.116 2.116 0 0 1-.044-1.003c.547-2.648 1.88-5.109 3.854-7.113 1.974-2.004 4.513-3.474 7.34-4.251a17.604 17.604 0 0 1 8.691-.154c2.858.677 5.458 2.056 7.516 3.989 2.057 1.933 3.494 4.344 4.152 6.97a13.487 13.487 0 0 1-.417 7.926c-.932 2.557-2.615 4.832-4.867 6.575-2.25 1.744-4.984 2.89-7.9 3.312v8.194a2.21 2.21 0 0 1-.74 1.632 2.657 2.657 0 0 1-1.788.676z"/><circle cx="49" cy="74.394" r="4" fill="#fff" transform="rotate(-180 49 74.394)"/></svg>