<svg xmlns="http://www.w3.org/2000/svg" fill="none" className="callout--icon" viewBox="0 0 100 100"><path fill="#dd0744" d="M99.267 28.233l-27.5-27.5A2.475 2.475 0 0 0 70 0H30c-.667 0-1.3.261-1.767.733l-27.5 27.5A2.484 2.484 0 0 0 0 30v40c0 .661.261 1.3.733 1.767l27.5 27.5c.467.472 1.1.733 1.767.733h40c.667 0 1.3-.261 1.767-.733l27.5-27.5A2.484 2.484 0 0 0 100 70V30c0-.661-.261-1.3-.733-1.767z" className="icon--fill"/><rect width="5.882" height="57.843" x="27.451" y="31.61" fill="#fff" rx="2.941" transform="rotate(-45 27.451 31.61)"/><rect width="5.882" height="57.843" x="31.61" y="72.512" fill="#fff" rx="2.941" transform="rotate(-135 31.61 72.512)"/></svg>